<?xml version="1.0" encoding="UTF-8" standalone="no"?>
<svg
   shape-rendering="geometricPrecision"
   text-rendering="geometricPrecision"
   image-rendering="optimizeQuality"
   fill-rule="evenodd"
   clip-rule="evenodd"
   viewBox="0 0 512 508.33"
   version="1.1"
   id="svg4"
   sodipodi:docname="incorrect-icon.svg"
   inkscape:version="1.2 (dc2aedaf03, 2022-05-15)"
   xmlns:inkscape="http://www.inkscape.org/namespaces/inkscape"
   xmlns:sodipodi="http://sodipodi.sourceforge.net/DTD/sodipodi-0.dtd"
   xmlns="http://www.w3.org/2000/svg"
   xmlns:svg="http://www.w3.org/2000/svg">
  <defs
     id="defs8" />
  <sodipodi:namedview
     id="namedview6"
     pagecolor="#505050"
     bordercolor="#ffffff"
     borderopacity="1"
     inkscape:showpageshadow="0"
     inkscape:pageopacity="0"
     inkscape:pagecheckerboard="1"
     inkscape:deskcolor="#505050"
     showgrid="false"
     inkscape:zoom="1.1350877"
     inkscape:cx="195.5796"
     inkscape:cy="244.47449"
     inkscape:window-width="1920"
     inkscape:window-height="996"
     inkscape:window-x="-8"
     inkscape:window-y="-8"
     inkscape:window-maximized="1"
     inkscape:current-layer="svg4" />
  <path
     fill="#EB0100"
     d="M317.99 323.62c-17.23-19.89-35.3-40.09-54.23-60.09-62.06 59.35-119.53 126.18-161.12 201.73-51.02 92.68-126.31 16.84-92.15-50.33 27.46-61.28 98.07-146.3 182.94-220.07-46.74-41.72-97.97-79.34-154.08-107.07C-42.76 47.2 19.97-20.82 79.37 6.16c50.04 19.82 119.09 70.85 182.26 134.32 63.11-45.86 129.55-81.8 189.45-95.87 13-3.06 50.95-11.33 59.69 1.04 3.29 4.67-.33 11.68-7.08 19.29-22.99 25.96-84.78 67.12-114.72 90.82-21.61 17.11-43.55 34.99-65.37 53.71 23.2 28.81 43.94 58.64 60.47 88.17 14.37 25.66 25.55 51.1 32.42 75.46 3.14 11.13 11.75 43.64 1.38 51.66-3.91 3.03-10.11.16-16.95-5.38-23.34-18.89-61.29-70.77-82.93-95.76z"
     id="path2"
     style="fill:#000000;fill-opacity:1" />
</svg>
