<?xml version="1.0" encoding="UTF-8" standalone="no"?>
<svg
   version="1.1"
   id="Layer_1"
   x="0px"
   y="0px"
   viewBox="0 0 122.88 103.38"
   style="enable-background:new 0 0 122.88 103.38"
   xml:space="preserve"
   sodipodi:docname="eraser.svg"
   inkscape:version="1.2 (dc2aedaf03, 2022-05-15)"
   xmlns:inkscape="http://www.inkscape.org/namespaces/inkscape"
   xmlns:sodipodi="http://sodipodi.sourceforge.net/DTD/sodipodi-0.dtd"
   xmlns="http://www.w3.org/2000/svg"
   xmlns:svg="http://www.w3.org/2000/svg"><defs
     id="defs11" /><sodipodi:namedview
     id="namedview9"
     pagecolor="#505050"
     bordercolor="#ffffff"
     borderopacity="1"
     inkscape:showpageshadow="0"
     inkscape:pageopacity="0"
     inkscape:pagecheckerboard="1"
     inkscape:deskcolor="#505050"
     showgrid="false"
     inkscape:zoom="2.7906711"
     inkscape:cx="31.533634"
     inkscape:cy="25.621077"
     inkscape:window-width="1920"
     inkscape:window-height="996"
     inkscape:window-x="-8"
     inkscape:window-y="-8"
     inkscape:window-maximized="1"
     inkscape:current-layer="Layer_1" /><style
     type="text/css"
     id="style2">.st0{fill-rule:evenodd;clip-rule:evenodd;}</style><g
     id="g6"
     style="fill:#ffffff;fill-opacity:1"><path
       class="st0"
       d="M27.66,93.53h32.49l9.1-9.08c1.4-1.4,1.41-3.7,0.01-5.1l-27.02-27.1c-1.4-1.4-3.7-1.41-5.1-0.01L14.3,75.03 c-1.41,1.4-1.41,3.7-0.01,5.1L27.66,93.53L27.66,93.53z M71.03,93.53h51.84v9.85H61.16H50.28h-12.8H25.7h-0.35L1.05,79.01 c-1.4-1.4-1.4-3.7,0.01-5.1L74.11,1.05c1.41-1.4,3.7-1.4,5.1,0.01l39.62,39.72c1.4,1.4,1.4,3.7-0.01,5.1L71.03,93.53L71.03,93.53z"
       id="path4"
       style="fill:#ffffff;fill-opacity:1" /></g></svg>
