<?xml version="1.0" encoding="UTF-8" standalone="no"?>
<svg
   id="Layer_1"
   data-name="Layer 1"
   viewBox="0 0 122.88 97.71"
   version="1.1"
   sodipodi:docname="path_nolines_dark.svg"
   inkscape:version="1.2 (dc2aedaf03, 2022-05-15)"
   xmlns:inkscape="http://www.inkscape.org/namespaces/inkscape"
   xmlns:sodipodi="http://sodipodi.sourceforge.net/DTD/sodipodi-0.dtd"
   xmlns="http://www.w3.org/2000/svg"
   xmlns:svg="http://www.w3.org/2000/svg"
   xmlns:rdf="http://www.w3.org/1999/02/22-rdf-syntax-ns#"
   xmlns:cc="http://creativecommons.org/ns#"
   xmlns:dc="http://purl.org/dc/elements/1.1/">
  <defs
     id="defs9" />
  <sodipodi:namedview
     id="namedview7"
     pagecolor="#505050"
     bordercolor="#ffffff"
     borderopacity="1"
     inkscape:showpageshadow="0"
     inkscape:pageopacity="0"
     inkscape:pagecheckerboard="1"
     inkscape:deskcolor="#505050"
     showgrid="false"
     inkscape:zoom="4.1756218"
     inkscape:cx="28.857978"
     inkscape:cy="41.071727"
     inkscape:window-width="1920"
     inkscape:window-height="996"
     inkscape:window-x="-8"
     inkscape:window-y="-8"
     inkscape:window-maximized="1"
     inkscape:current-layer="Layer_1" />
  <title
     id="title2">strategy-plan</title>
  <path
     d="m 24.395116,61.52327 c 7.941268,1.910447 13.466169,9.112761 13.253628,17.276881 -0.21254,8.164027 -6.104603,15.066728 -14.134182,16.561995 C 15.484982,96.857412 7.5031949,92.538295 4.3662029,84.998017 1.2291772,77.457653 3.7912154,68.74939 10.512493,64.108488 l 0.517043,-0.349004 C 15.4399,62.383557 16.843613,61.36463 24.395116,61.52327 Z m 1.111644,13.326801 c -3.894819,-5.694489 -12.781859,-1.880956 -11.352032,4.859656 1.429826,6.740611 11.099751,6.61782 12.347341,-0.167484 0.30479,-1.634175 -0.05333,-3.322462 -0.995309,-4.692172 z M 74.319801,9.7631597 c 6.545101,3.1105913 9.754148,7.2567493 9.541607,15.4208693 -0.21254,8.164027 -6.104604,15.066729 -14.134182,16.561996 C 61.697645,43.241291 53.715857,38.922174 50.578865,31.381896 47.441839,23.841532 49.233394,15.447157 56.126441,11.270694 63.019489,7.0942323 67.7747,6.6525687 74.319801,9.7631597 Z M 71.719423,21.23395 c -3.894819,-5.694489 -12.78186,-1.880956 -11.352031,4.859656 1.429826,6.740611 11.09975,6.61782 12.347341,-0.167484 0.304789,-1.634175 -0.05333,-3.322463 -0.99531,-4.692172 z m 36.899087,38.269823 c 6.5451,3.110591 9.75414,7.256749 9.5416,15.420869 -0.21254,8.164027 -6.1046,15.066729 -14.13418,16.561996 C 95.99635,92.981904 88.014562,88.662787 84.87757,81.122509 81.740544,73.582145 83.532099,65.18777 90.425146,61.011307 97.318194,56.834846 102.07341,56.393182 108.61851,59.503773 Z m -2.60038,11.47079 c -3.89482,-5.694489 -12.781862,-1.880956 -11.352033,4.859656 1.429826,6.740611 11.099753,6.61782 12.347343,-0.167484 0.30479,-1.634175 -0.0533,-3.322463 -0.99531,-4.692172 z"
     id="path4"
     sodipodi:nodetypes="csssccccscczssszzcsccsssssscscc"
     style="stroke-width:1.29261;fill:#ffffff" />
  <metadata
     id="metadata1356">
    <rdf:RDF>
      <cc:Work
         rdf:about="">
        <dc:title>strategy-plan</dc:title>
      </cc:Work>
    </rdf:RDF>
  </metadata>
</svg>
