<?xml version="1.0" encoding="UTF-8" standalone="no"?>
<svg
   id="Layer_1"
   data-name="Layer 1"
   viewBox="0 0 122.88 97.71"
   version="1.1"
   sodipodi:docname="path.svg"
   inkscape:version="1.2 (dc2aedaf03, 2022-05-15)"
   xmlns:inkscape="http://www.inkscape.org/namespaces/inkscape"
   xmlns:sodipodi="http://sodipodi.sourceforge.net/DTD/sodipodi-0.dtd"
   xmlns="http://www.w3.org/2000/svg"
   xmlns:svg="http://www.w3.org/2000/svg"
   xmlns:rdf="http://www.w3.org/1999/02/22-rdf-syntax-ns#"
   xmlns:cc="http://creativecommons.org/ns#"
   xmlns:dc="http://purl.org/dc/elements/1.1/">
  <defs
     id="defs9" />
  <sodipodi:namedview
     id="namedview7"
     pagecolor="#505050"
     bordercolor="#ffffff"
     borderopacity="1"
     inkscape:showpageshadow="0"
     inkscape:pageopacity="0"
     inkscape:pagecheckerboard="1"
     inkscape:deskcolor="#505050"
     showgrid="false"
     inkscape:zoom="4.1756218"
     inkscape:cx="51.968308"
     inkscape:cy="41.071727"
     inkscape:window-width="1920"
     inkscape:window-height="996"
     inkscape:window-x="-8"
     inkscape:window-y="-8"
     inkscape:window-maximized="1"
     inkscape:current-layer="Layer_1" />
  <title
     id="title2">strategy-plan</title>
  <path
     d="m 24.395116,61.52327 c 7.941268,1.910447 13.466169,9.112761 13.253628,17.276881 -0.21254,8.164027 -6.104603,15.066728 -14.134182,16.561995 C 15.484982,96.857412 7.5031949,92.538295 4.3662029,84.998017 1.2291772,77.457653 3.7912154,68.74939 10.512493,64.108488 l 0.517043,-0.349004 C 15.4399,62.383557 16.843613,61.36463 24.395116,61.52327 Z m 1.111644,13.326801 c -3.894819,-5.694489 -12.781859,-1.880956 -11.352032,4.859656 1.429826,6.740611 11.099751,6.61782 12.347341,-0.167484 0.30479,-1.634175 -0.05333,-3.322462 -0.995309,-4.692172 z m 81.06448,-14.374144 c 7.94126,1.910446 13.46617,9.11276 13.25363,17.276881 -0.21255,8.164027 -6.10461,15.066728 -14.13419,16.561993 C 97.661099,95.810065 89.679313,91.490953 86.542321,83.950674 83.405296,76.41031 85.967334,67.702047 92.688611,63.061145 l 0.517044,-0.349004 m 14.477225,11.090587 c -3.89483,-5.694489 -12.781864,-1.880956 -11.352031,4.859656 1.42982,6.740611 11.099751,6.61782 12.347341,-0.167484 0.30479,-1.634175 -0.0534,-3.322462 -0.99531,-4.692172 z M 74.319801,9.7631597 c 6.545101,3.1105913 9.754148,7.2567493 9.541607,15.4208693 -0.21254,8.164027 -6.104604,15.066729 -14.134182,16.561996 C 61.697645,43.241291 53.715857,38.922174 50.578865,31.381896 47.441839,23.841532 49.233394,15.447157 56.126441,11.270694 63.019489,7.0942323 67.7747,6.6525687 74.319801,9.7631597 Z M 71.719423,21.23395 c -3.894819,-5.694489 -12.78186,-1.880956 -11.352031,4.859656 1.429826,6.740611 11.09975,6.61782 12.347341,-0.167484 0.304789,-1.634175 -0.05333,-3.322463 -0.99531,-4.692172 z"
     id="path4"
     sodipodi:nodetypes="csssccccscccssscccscczssszzcscc"
     style="stroke-width:1.29261" />
  <path
     style="fill:none;stroke:#000000;stroke-width:10;stroke-linecap:butt;stroke-linejoin:miter;stroke-dasharray:none;stroke-opacity:1"
     d="M 28.095762,68.692545 59.192392,30.326258"
     id="path1410"
     sodipodi:nodetypes="cc" />
  <path
     style="fill:none;stroke:#000000;stroke-width:10;stroke-linecap:butt;stroke-linejoin:miter;stroke-dasharray:none;stroke-opacity:1"
     d="M 76.203753,30.764141 102.56294,66.636377"
     id="path1412"
     sodipodi:nodetypes="cc" />
  <metadata
     id="metadata2090">
    <rdf:RDF>
      <cc:Work
         rdf:about="">
        <dc:title>strategy-plan</dc:title>
      </cc:Work>
    </rdf:RDF>
  </metadata>
</svg>
